<svg width="105" height="107" viewBox="0 0 105 107" fill="none" xmlns="http://www.w3.org/2000/svg">
<path d="M1 71.8967V45.2939C1 41.7409 4.60169 39.3216 7.89078 40.6652L11.4621 42.124C13.3425 42.8921 14.5713 44.7215 14.5713 46.7527V67.6998C14.5713 69.0281 15.0998 70.3018 16.0402 71.2398L28.8773 84.0444C29.8645 85.0292 31.4653 85.0198 32.4409 84.0235C33.3851 83.0592 33.3972 81.5207 32.4682 80.5418L25.5698 73.2726C22.8831 70.4416 24.3312 65.7613 28.1472 64.9422L31.3299 64.259C33.0659 63.8864 34.8693 64.4623 36.0679 65.7722L47.5158 78.2821C48.3593 79.2039 48.8271 80.4081 48.8271 81.6576V101C48.8271 103.761 46.5886 106 43.8271 106H28.3859C25.667 106 23.4628 103.796 23.4628 101.077C23.4628 99.8764 23.0241 98.7172 22.2292 97.8174L2.25295 75.2072C1.4456 74.2934 1 73.116 1 71.8967Z" fill="#525453" stroke="#525453"/>
<path d="M103.621 71.8483V45.2913C103.621 41.7409 100.024 39.3216 96.7353 40.6603L93.1374 42.1251C91.2541 42.8918 90.0227 44.7227 90.0227 46.756V67.657C90.0227 68.9882 89.4919 70.2644 88.5479 71.2029L75.6828 83.9924C74.696 84.9735 73.0992 84.9641 72.124 83.9715C71.1756 83.0062 71.1635 81.4627 72.0967 80.4827L78.9869 73.2465C81.6819 70.4161 80.2336 65.7268 76.4118 64.9092L73.2186 64.2261C71.4865 63.8555 69.6876 64.4291 68.4896 65.7338L57.0169 78.2289C56.1699 79.1514 55.6999 80.3581 55.6999 81.6105V100.911C55.6999 103.673 57.9385 105.911 60.6999 105.911H76.2011C78.9143 105.911 81.1138 103.712 81.1138 100.999C81.1138 99.7976 81.5537 98.6383 82.3503 97.7397L102.362 75.1651C103.173 74.2505 103.621 73.0706 103.621 71.8483Z" fill="#525453" stroke="#525453"/>
<path d="M77.8151 24.5364C77.8151 20.7725 73.8133 18.3582 70.4837 20.1132L57.8336 26.7809C56.1924 27.646 55.165 29.3488 55.165 31.2041V49.0932C55.165 52.8496 59.1525 55.2645 62.4815 53.5242L75.1315 46.9112C76.7811 46.0488 77.8151 44.3415 77.8151 42.4801V24.5364Z" fill="#525453"/>
<path d="M26.712 24.8828C26.712 21.1274 30.6975 18.7124 34.0264 20.4507L46.6764 27.0564C48.3272 27.9184 49.3621 29.6263 49.3621 31.4885V49.1287C49.3621 52.8767 45.3908 55.2923 42.0626 53.5686L29.4126 47.017C27.7536 46.1578 26.712 44.4454 26.712 42.5772V24.8828Z" fill="#525453"/>
<path d="M38.1292 16.3738C34.5322 14.5446 34.4722 9.42742 38.0254 7.51444L49.6464 1.25789C51.1075 0.471252 52.8636 0.460757 54.334 1.22987L66.5048 7.596C70.0878 9.47014 70.0799 14.6012 66.4911 16.4642L54.8245 22.5206C53.3933 23.2635 51.6917 23.2707 50.2544 22.5397L38.1292 16.3738Z" fill="#93C220"/>
</svg>
